<svg xmlns="http://www.w3.org/2000/svg">
    <symbol  id="like" viewBox="0 0 17 15">
        <g>
            <path d="M8.87502 15C8.74377 15 8.61252 14.9587 8.50127 14.875C8.18501 14.64 0.75 9.0375 0.75 4.53875C0.75 2.03625 2.785 0 5.28751 0C6.71251 0 8.02876 0.66375 8.87502 1.75375C9.72002 0.66375 11.0363 0 12.4625 0C14.965 0 17 2.03625 17 4.53875C17 9.03875 9.56502 14.64 9.24877 14.8762C9.13752 14.9587 9.00627 15 8.87502 15ZM5.28751 1.25C3.47501 1.25 2 2.72625 2 4.53875C2 7.575 6.65376 11.8488 8.87502 13.5875C11.095 11.8475 15.75 7.57125 15.75 4.53875C15.75 2.72625 14.275 1.25 12.4625 1.25C11.1513 1.25 9.96877 2.02375 9.44877 3.22125C9.25127 3.6775 8.50001 3.6775 8.30251 3.22125C7.78126 2.02375 6.59876 1.25 5.28751 1.25Z" />
        </g>
    </symbol>
</svg>
